<svg width="26px" height="26px" viewBox="0 0 26 26" version="1.1" xmlns="http://www.w3.org/2000/svg" xmlns:xlink="http://www.w3.org/1999/xlink">
    <!-- Generator: Sketch 47.1 (45422) - http://www.bohemiancoding.com/sketch -->
    <desc>Created with Sketch.</desc>
    <defs></defs>
    <g id="Symbols" stroke="none" stroke-width="1" fill="none" fill-rule="evenodd">
        <g id="Help">
            <g id="Group-2">
                <circle id="Oval-2" fill="#ff3502" cx="13" cy="13" r="13"></circle>
                <path d="M8.869,6.612 C9.10366784,6.39933227 9.36033194,6.19766762 9.639,6.007 C9.91766806,5.81633238 10.2219984,5.6476674 10.552,5.501 C10.8820017,5.3543326 11.2394981,5.23883376 11.6245,5.1545 C12.0095019,5.07016624 12.4256644,5.028 12.873,5.028 C13.467003,5.028 14.0151642,5.11233249 14.5175,5.281 C15.0198358,5.44966751 15.4524982,5.69166509 15.8155,6.007 C16.1785018,6.32233491 16.4626656,6.70183112 16.668,7.1455 C16.8733344,7.58916888 16.976,8.08599725 16.976,8.636 C16.976,9.19333612 16.8935008,9.67549797 16.7285,10.0825 C16.5634992,10.489502 16.3563346,10.8433318 16.107,11.144 C15.8576654,11.4446682 15.5845015,11.7068322 15.2875,11.9305 C14.9904985,12.1541678 14.7118346,12.364999 14.4515,12.563 C14.1911654,12.761001 13.9675009,12.9571657 13.7805,13.1515 C13.5934991,13.3458343 13.4816669,13.5639988 13.445,13.806 L13.236,15.467 L11.773,15.467 L11.619,13.652 C11.5823332,13.314665 11.6409992,13.0213346 11.795,12.772 C11.9490008,12.5226654 12.1488321,12.2898344 12.3945,12.0735 C12.6401679,11.8571656 12.9133318,11.6463344 13.214,11.441 C13.5146682,11.2356656 13.7933321,11.0065013 14.05,10.7535 C14.306668,10.5004987 14.5229991,10.2145016 14.699,9.8955 C14.8750009,9.5764984 14.963,9.1970022 14.963,8.757 C14.963,8.45633183 14.9043339,8.18500121 14.787,7.943 C14.6696661,7.70099879 14.5083344,7.4938342 14.303,7.3215 C14.0976656,7.1491658 13.8556681,7.01716713 13.577,6.9255 C13.2983319,6.83383287 13.0013349,6.788 12.686,6.788 C12.2459978,6.788 11.8720015,6.84116614 11.564,6.9475 C11.2559985,7.05383387 10.9938344,7.16933271 10.7775,7.294 C10.5611656,7.41866729 10.383334,7.53416613 10.244,7.6405 C10.104666,7.74683387 9.98733381,7.8 9.892,7.8 C9.67933227,7.8 9.52533381,7.70833425 9.43,7.525 L8.869,6.612 Z M11.003,19.713 C11.003,19.514999 11.0396663,19.3280009 11.113,19.152 C11.1863337,18.9759991 11.287166,18.8220007 11.4155,18.69 C11.543834,18.5579993 11.6959991,18.4535004 11.872,18.3765 C12.0480009,18.2994996 12.2386656,18.261 12.444,18.261 C12.642001,18.261 12.8289991,18.2994996 13.005,18.3765 C13.1810009,18.4535004 13.3349993,18.5579993 13.467,18.69 C13.5990007,18.8220007 13.7034996,18.9759991 13.7805,19.152 C13.8575004,19.3280009 13.896,19.514999 13.896,19.713 C13.896,19.9183344 13.8575004,20.1089991 13.7805,20.285 C13.7034996,20.4610009 13.5990007,20.6149993 13.467,20.747 C13.3349993,20.8790007 13.1810009,20.9816663 13.005,21.055 C12.8289991,21.1283337 12.642001,21.165 12.444,21.165 C12.2386656,21.165 12.0480009,21.1283337 11.872,21.055 C11.6959991,20.9816663 11.543834,20.8790007 11.4155,20.747 C11.287166,20.6149993 11.1863337,20.4610009 11.113,20.285 C11.0396663,20.1089991 11.003,19.9183344 11.003,19.713 Z" id="?" fill="#fff"></path>
            </g>
        </g>
    </g>
</svg>
